<svg width="800" height="800" viewBox="0 0 800 800" fill="none" xmlns="http://www.w3.org/2000/svg">
<g clip-path="url(#clip0_177_24)">
<path d="M425 195.25C435.526 197.431 446.25 198.52 457 198.5C475.546 198.578 493.925 194.997 511.084 187.962C528.244 180.926 543.847 170.575 557 157.5C573.856 140.314 586.177 119.207 592.853 96.0791C599.53 72.9507 600.354 48.5256 595.25 25C594.356 19.9568 591.934 15.3099 588.312 11.6882C584.69 8.06641 580.043 5.64447 575 4.75001C551.515 -0.417129 527.115 0.327057 503.989 6.91579C480.863 13.5045 459.735 25.7316 442.5 42.5C425.732 59.735 413.504 80.8635 406.916 103.989C400.327 127.115 399.583 151.515 404.75 175C405.644 180.043 408.066 184.69 411.688 188.312C415.31 191.934 419.957 194.356 425 195.25ZM478.5 78C487.691 68.9106 498.704 61.8718 510.812 57.3472C522.921 52.8227 535.851 50.915 548.75 51.75C549.585 64.6494 547.677 77.5792 543.153 89.6879C538.628 101.796 531.589 112.809 522.5 122C513.248 130.932 502.193 137.783 490.078 142.094C477.962 146.406 465.065 148.079 452.25 147C451.558 134.345 453.488 121.684 457.919 109.811C462.35 97.9374 469.187 87.1073 478 78H478.5Z" fill="white"/>
<path d="M478.5 78C487.691 68.9106 498.704 61.8718 510.812 57.3472C522.921 52.8227 535.851 50.915 548.75 51.75C549.585 64.6494 547.677 77.5792 543.153 89.6879C538.628 101.796 531.589 112.809 522.5 122C513.248 130.932 502.193 137.783 490.078 142.094C477.962 146.406 465.065 148.079 452.25 147C451.558 134.345 453.488 121.684 457.919 109.811C462.35 97.9374 469.187 87.1073 478 78H478.5Z" fill="white"/>
<path d="M704 582C681.56 569.898 662.576 552.276 648.839 530.799C635.102 509.321 627.065 484.697 625.489 459.251C623.913 433.805 628.848 408.377 639.83 385.368C650.811 362.359 667.475 342.529 688.25 327.75C691.029 325.766 693.372 323.235 695.134 320.311C696.897 317.387 698.043 314.133 698.5 310.75C698.993 307.353 698.782 303.89 697.878 300.579C696.975 297.267 695.4 294.176 693.25 291.5C663.619 255.509 625.463 227.493 582.25 210C548.874 196.62 511.625 196.62 478.25 210L433.5 228C412.063 236.505 388.187 236.505 366.75 228L321.75 210C288.374 196.62 251.125 196.62 217.75 210C152.683 236.351 100.048 286.424 70.4862 350.096C40.9241 413.769 36.6399 486.29 58.4998 553L67.2498 574C90.7271 632.294 122.286 686.996 161 736.5C181.513 767.172 212.516 789.304 248.19 798.74C283.863 808.176 321.753 804.268 354.75 787.75C368.772 780.635 384.275 776.926 400 776.926C415.724 776.926 431.227 780.635 445.25 787.75C477.997 804.109 515.56 808.057 550.993 798.866C586.427 789.674 617.334 767.964 638 737.75C667.695 699.513 693.333 658.291 714.5 614.75C717.273 608.984 717.729 602.375 715.776 596.283C713.823 590.19 709.608 585.079 704 582ZM597.5 708.75C583.782 729.314 563.014 744.148 539.114 750.457C515.213 756.766 489.83 754.114 467.75 743C446.67 732.631 423.492 727.24 400 727.24C376.508 727.24 353.33 732.631 332.25 743C309.86 754.089 284.178 756.575 260.077 749.985C235.976 743.395 215.132 728.189 201.5 707.25C165.328 660.863 135.717 609.716 113.5 555.25L105.5 535.75C88.0246 481.264 91.819 422.183 116.12 370.38C140.422 318.578 183.429 277.892 236.5 256.5C257.803 247.748 281.697 247.748 303 256.5L348 274.5C381.4 287.752 418.6 287.752 452 274.5L497 256.5C518.392 247.761 542.358 247.761 563.75 256.5C591.664 267.525 617.145 283.917 638.75 304.75C617.255 325.072 600.536 349.91 589.797 377.473C579.058 405.036 574.567 434.637 576.647 464.145C578.727 493.653 587.327 522.332 601.827 548.115C616.327 573.899 636.366 596.145 660.5 613.25C642.173 646.768 621.101 678.711 597.5 708.75Z" fill="white"/>
<path d="M597.5 708.75C583.782 729.314 563.014 744.148 539.114 750.457C515.213 756.766 489.83 754.114 467.75 743C446.67 732.631 423.492 727.24 400 727.24C376.508 727.24 353.33 732.631 332.25 743C309.86 754.089 284.178 756.575 260.077 749.985C235.976 743.395 215.132 728.189 201.5 707.25C165.328 660.863 135.717 609.716 113.5 555.25L105.5 535.75C88.0246 481.264 91.819 422.183 116.12 370.38C140.422 318.578 183.429 277.892 236.5 256.5C257.803 247.748 281.697 247.748 303 256.5L348 274.5C381.4 287.752 418.6 287.752 452 274.5L497 256.5C518.392 247.761 542.358 247.761 563.75 256.5C591.664 267.525 617.145 283.917 638.75 304.75C617.255 325.072 600.536 349.91 589.797 377.473C579.058 405.036 574.567 434.637 576.647 464.145C578.727 493.653 587.327 522.332 601.827 548.115C616.327 573.899 636.366 596.145 660.5 613.25C642.173 646.768 621.101 678.711 597.5 708.75Z" fill="white"/>
</g>
<defs>
<clipPath id="clip0_177_24">
<rect width="800" height="800" fill="white"/>
</clipPath>
</defs>
</svg>
