<svg width="647" height="647" viewBox="0 0 647 647" fill="none" xmlns="http://www.w3.org/2000/svg">
<circle cx="323.5" cy="323.5" r="319.5" fill="white" stroke="black" stroke-width="8"/>
<g filter="url(#filter0_d_142_31)">
<path d="M240.085 191.833H406.752H240.085ZM240.085 275.167H406.752H240.085ZM511 233.5C511 337.054 427.054 421 323.5 421C281.075 421 136.015 421 136.015 421C136.015 421 168.498 343.002 155.498 316.85C143.018 291.742 136 263.442 136 233.5C136 129.947 219.946 46 323.5 46C427.054 46 511 129.947 511 233.5Z" fill="white"/>
<path d="M240.085 191.833H406.752M240.085 275.167H406.752M511 233.5C511 337.054 427.054 421 323.5 421C281.075 421 136.015 421 136.015 421C136.015 421 168.498 343.002 155.498 316.85C143.018 291.742 136 263.442 136 233.5C136 129.947 219.946 46 323.5 46C427.054 46 511 129.947 511 233.5Z" stroke="black" stroke-width="14" stroke-linecap="round" stroke-linejoin="round"/>
</g>
<path d="M178.25 506.562H214.438V513.125H199.656V551H193.031V513.125H178.25V506.562ZM214.75 530.25C214.75 528.104 215.271 526.156 216.312 524.406C217.375 522.656 218.792 521.26 220.562 520.219C222.333 519.156 224.292 518.625 226.438 518.625H244.5V551H237.906V525.219H226.438C225.042 525.219 223.844 525.719 222.844 526.719C221.844 527.698 221.344 528.896 221.344 530.312V539.25C221.344 540.667 221.844 541.885 222.844 542.906C223.844 543.906 225.042 544.406 226.438 544.406H234.156V551H226.438C224.292 551 222.333 550.479 220.562 549.438C218.792 548.375 217.375 546.958 216.312 545.188C215.271 543.417 214.75 541.458 214.75 539.312V530.25ZM252 506.562H258.594V551H252V506.562ZM266.125 506.562H272.719V531.031H274.938L286.656 518.625H295.219L280.438 534.312L296.531 551H287.312L274.344 537.625H272.719V551H266.125V506.562ZM320 517.312C320 515.333 320.49 513.531 321.469 511.906C322.469 510.281 323.802 508.99 325.469 508.031C327.156 507.052 329.01 506.562 331.031 506.562H354.031V513.125H331.031C329.823 513.125 328.781 513.552 327.906 514.406C327.031 515.26 326.594 516.292 326.594 517.5V520.562C326.594 521.667 327.031 522.615 327.906 523.406C328.781 524.198 329.823 524.594 331.031 524.594H345.188C347.229 524.594 349.083 525.083 350.75 526.062C352.417 527.021 353.74 528.323 354.719 529.969C355.719 531.594 356.219 533.396 356.219 535.375V540.219C356.219 542.198 355.719 544.01 354.719 545.656C353.74 547.281 352.417 548.583 350.75 549.562C349.083 550.521 347.229 551 345.188 551H320.031V544.406H345.188C346.417 544.406 347.458 544 348.312 543.188C349.188 542.354 349.625 541.354 349.625 540.188V535.406C349.625 534.24 349.188 533.24 348.312 532.406C347.458 531.573 346.417 531.156 345.188 531.156H331.031C329.01 531.156 327.156 530.688 325.469 529.75C323.802 528.792 322.469 527.51 321.469 525.906C320.49 524.302 320 522.531 320 520.594V517.312ZM368.875 518.625L377.281 541.062L385.875 518.625H393.156L375.969 563.188H368.75L373.781 549.938L361.875 518.625H368.875ZM397.562 525.188C397.562 523.375 398.208 521.833 399.5 520.562C400.812 519.271 402.385 518.625 404.219 518.625H415.625C417.771 518.625 419.729 519.156 421.5 520.219C423.271 521.26 424.677 522.667 425.719 524.438C426.781 526.208 427.312 528.167 427.312 530.312V551H420.719V530.406C420.719 528.948 420.219 527.708 419.219 526.688C418.24 525.667 417.042 525.156 415.625 525.156H404.156V551H397.562V525.188ZM434.5 530.312C434.5 528.167 435.042 526.208 436.125 524.438C437.208 522.667 438.656 521.26 440.469 520.219C442.281 519.156 444.292 518.625 446.5 518.625H464.719V525.219H446.5C445.021 525.219 443.75 525.729 442.688 526.75C441.625 527.75 441.094 528.969 441.094 530.406V539.188C441.094 540.625 441.615 541.854 442.656 542.875C443.719 543.896 445 544.406 446.5 544.406H464.719V551H446.5C444.292 551 442.281 550.469 440.469 549.406C438.656 548.344 437.208 546.927 436.125 545.156C435.042 543.365 434.5 541.396 434.5 539.25V530.312Z" fill="black"/>
<defs>
<filter id="filter0_d_142_31" x="129" y="39" width="421" height="420" filterUnits="userSpaceOnUse" color-interpolation-filters="sRGB">
<feFlood flood-opacity="0" result="BackgroundImageFix"/>
<feColorMatrix in="SourceAlpha" type="matrix" values="0 0 0 0 0 0 0 0 0 0 0 0 0 0 0 0 0 0 127 0" result="hardAlpha"/>
<feOffset dx="32" dy="31"/>
<feComposite in2="hardAlpha" operator="out"/>
<feColorMatrix type="matrix" values="0 0 0 0 0 0 0 0 0 0 0 0 0 0 0 0 0 0 0.25 0"/>
<feBlend mode="normal" in2="BackgroundImageFix" result="effect1_dropShadow_142_31"/>
<feBlend mode="normal" in="SourceGraphic" in2="effect1_dropShadow_142_31" result="shape"/>
</filter>
</defs>
</svg>
